<?xml version="1.0" standalone="no"?><!DOCTYPE svg PUBLIC "-//W3C//DTD SVG 1.1//EN" "http://www.w3.org/Graphics/SVG/1.1/DTD/svg11.dtd"><svg t="1527412139107" class="icon" style="" viewBox="0 0 1024 1024" version="1.1" xmlns="http://www.w3.org/2000/svg" p-id="7483" xmlns:xlink="http://www.w3.org/1999/xlink" width="200" height="200"><defs><style type="text/css"></style></defs><path d="M928.954182 792.203636h-66.094546l-46.545454-370.501818c0-185.250909-97.373091-288.581818-279.272727-301.614545V25.134545a24.948364 24.948364 0 1 0-49.896728 0v94.952728c-181.527273 13.032727-279.272727 116.363636-279.272727 301.614545l-46.545455 370.501818H95.185455a22.667636 22.667636 0 0 0-24.948364 21.876364 24.994909 24.994909 0 0 0 24.948364 25.134545h833.62909a24.994909 24.994909 0 0 0 24.948364-25.134545 22.667636 22.667636 0 0 0-24.948364-21.876364z m-113.058909 0H208.477091l46.545454-350.021818c0-169.425455 87.784727-260.189091 257.163637-260.189091s257.117091 90.763636 257.117091 260.189091l46.545454 350.021818z m-303.755637 179.665455c-73.914182 0-79.127273-41.890909-109.568-90.298182h-65.163636C363.938909 955.112727 392.890182 1024 512.186182 1024s148.340364-68.887273 174.778182-142.429091h-65.163637c-30.673455 48.407273-35.746909 90.298182-109.568 90.298182z" p-id="7484"></path></svg>