<?xml version="1.0" standalone="no"?><!DOCTYPE svg PUBLIC "-//W3C//DTD SVG 1.1//EN" "http://www.w3.org/Graphics/SVG/1.1/DTD/svg11.dtd"><svg t="1561617146072" class="icon" viewBox="0 0 1024 1024" version="1.1" xmlns="http://www.w3.org/2000/svg" p-id="2266" xmlns:xlink="http://www.w3.org/1999/xlink" width="128" height="128"><defs><style type="text/css"></style></defs><path d="M830.394049 268.109294H699.161169v65.662489h131.23288V268.109294z m93.822852 460.115306c-0.092098-162.765037-0.275269-325.529051 0.183172-488.366744-0.64059-15.939017 0.476861-33.564443-9.179057-47.451731-13.776771-9.490142-31.219026-8.354272-47.065945-9.014305-93.822852 0.475837-187.6631 0.292666-281.484929 0.292666V108.643396h-55.69651c-143.782707 25.429159-287.676955 50.089815-431.57018 75.115791v656.553257c143.05002 25.025976 286.193161 49.062416 429.06001 75.043137h58.20668v-84.423785c97.212042-0.183172 194.404642 0.292666 291.524586 0 15.646352-0.660032 39.07904-1.13587 42.834574-20.628829 5.716188-26.932396 2.730181-54.780651 3.187599-82.078367zM375.464859 658.787134c-15.939017-39.09746-35.341926-76.911694-46.77328-117.804033-12.751419 38.07006-30.92636 74.015737-45.563732 111.354134-20.519336-0.292666-41.058115-1.134847-61.57745-1.979074 24.091698-47.194882 47.323818-94.756107 72.185042-141.658323-21.087271-48.293913-44.264133-95.67299-65.993016-143.711076 20.611433-1.209548 41.222867-2.418073 61.851696-3.553943 13.979386 36.678364 29.258371 72.880891 40.782845 110.512976 12.366655-39.865963 30.852682-77.387531 46.682206-115.935475 21.179368-1.502213 42.468231-2.821255 63.738673-3.847632-25.027 51.299363-50.14405 102.597703-75.647911 153.712871 25.795503 52.54575 52.124148 104.687294 77.992306 157.230997-22.589484-1.316995-45.087894-2.708692-67.677379-4.321422z m520.537443 144.002718H586.670142v-56.28184h74.987878v-65.662489h-74.987878v-37.521569h74.987878v-65.662488h-74.987878v-37.521569h74.987878v-65.662489h-74.987878v-37.521568h74.987878v-65.662489h-74.987878v-37.521568h74.987878V268.109294h-74.987878v-56.281841h309.33216v590.962399z m-65.608253-431.496501H699.161169v65.662489h131.23288v-65.662489z m0 103.184057H699.161169v65.662489h131.23288v-65.662489z m0 103.184058H699.161169v65.662488h131.23288v-65.662488z m0 103.184057H699.161169v65.662489h131.23288v-65.662489z m0 0" fill="" p-id="2267"></path></svg>