<?xml version="1.0" standalone="no"?><!DOCTYPE svg PUBLIC "-//W3C//DTD SVG 1.1//EN" "http://www.w3.org/Graphics/SVG/1.1/DTD/svg11.dtd"><svg t="1531708611270" class="icon" style="" viewBox="0 0 1024 1024" version="1.1" xmlns="http://www.w3.org/2000/svg" p-id="3244" xmlns:xlink="http://www.w3.org/1999/xlink" width="200" height="200"><defs><style type="text/css"></style></defs><path d="M923.946748 274.647197l-18.944468 15.511276v555.150775C880.306832 921.773757 839.083965 955.412902 775.557116 955.438485h-3.096524c-63.907519-4.037966-115.628484-37.312814-144.765082-109.096721V289.89446l-18.706037-19.26681v-55.352678l15.635096 0.192381h282.229896l17.09126 0.100284v59.07956h0.001023z m-259.45417 33.455973v536.623817c17.885346 40.60786 64.512293 65.655326 112.085798 73.979922 39.308261-5.65479 72.061222-30.129204 91.339288-73.402777V308.10317H664.492578z m19.165502 184.515411H848.436984l1.052982 1.032516v330.984296c-9.79304 39.392172-36.467563 74.646094-74.224492 74.525344-29.459962-2.589988-77.284177-37.500079-92.635817-73.501014V493.651097l1.028423-1.032516zM295.427988 67.512626h294.390867l1.028423 1.028423v90.727351l-1.028423 1.028423h-35.651988v236.337683l54.813396 109.032252v97.819886l-1.028422 1.028423-91.591022-194.433294V160.482041H368.475677V409.049257L157.350213 833.933153c-4.845355 17.326621-3.238764 30.886451 3.666506 41.811268 7.630794 12.701277 22.215978 19.562545 44.911885 24.108071h432.139138l56.863079 52.942793-1.054005 2.056845H201.789331c-66.915016-22.254863-97.586572-58.743916-92.012624-119.879298 0-8.217149 0.705058-17.180288 2.083452-26.87509l219.573881-411.468353V159.717631h-35.997866l-1.026376-1.028422V68.541049l1.01819-1.028423z m245.459434 536.257474l68.440765 130.923842v128.379902l-343.575056 0.451278h-4.140297c-31.232328-6.968715-47.552016-36.912701-43.212174-67.845201 1.37123-5.575995 4.948709-10.403954 4.948709-14.45727l90.984201-177.452551h226.553852z" p-id="3245"></path></svg>