<?xml version="1.0" standalone="no"?><!DOCTYPE svg PUBLIC "-//W3C//DTD SVG 1.1//EN" "http://www.w3.org/Graphics/SVG/1.1/DTD/svg11.dtd"><svg t="1558804612616" class="icon" style="" viewBox="0 0 1024 1024" version="1.1" xmlns="http://www.w3.org/2000/svg" p-id="9514" xmlns:xlink="http://www.w3.org/1999/xlink" width="128" height="128"><defs><style type="text/css"></style></defs><path d="M512 873.0624a56.32 56.32 0 0 1-38.144-14.848l-128-116.8384H160.1024a56.6784 56.6784 0 0 1-56.6272-56.6272v-477.184a56.6784 56.6784 0 0 1 56.6272-56.6272h703.7952a56.6784 56.6784 0 0 1 56.6272 56.6272v224.768a20.8384 20.8384 0 1 1-41.6768 0v-224.768a14.9504 14.9504 0 0 0-14.9504-14.9504H160.1024a14.9504 14.9504 0 0 0-14.9504 14.9504v477.184a14.9504 14.9504 0 0 0 14.9504 14.9504h193.7408a20.48 20.48 0 0 1 14.08 5.4272L501.76 827.392a14.8992 14.8992 0 0 0 20.1728 0l134.0416-122.2656a20.48 20.48 0 0 1 14.0288-5.4272h193.7408a14.9504 14.9504 0 0 0 14.9504-14.9504V650.24a20.8384 20.8384 0 1 1 41.6768 0v34.304a56.6784 56.6784 0 0 1-56.6272 56.6272h-185.4976l-128 116.8384a56.32 56.32 0 0 1-38.2464 15.0528z" fill="#515151" p-id="9515"></path><path d="M358.4 466.432H240.64a20.8384 20.8384 0 1 1 0-41.472h117.76a20.8384 20.8384 0 0 1 0 41.6768zM566.9888 466.432H448.8704a20.8384 20.8384 0 0 1 0-41.6768h118.1184a20.8384 20.8384 0 1 1 0 41.6768zM775.424 466.432h-118.1184a20.8384 20.8384 0 1 1 0-41.6768h118.1184a20.8384 20.8384 0 1 1 0 41.6768z" fill="#515151" p-id="9516"></path></svg>