<?xml version="1.0" standalone="no"?><!DOCTYPE svg PUBLIC "-//W3C//DTD SVG 1.1//EN" "http://www.w3.org/Graphics/SVG/1.1/DTD/svg11.dtd"><svg t="1530629031419" class="icon" style="" viewBox="0 0 1024 1024" version="1.1" xmlns="http://www.w3.org/2000/svg" p-id="25734" xmlns:xlink="http://www.w3.org/1999/xlink" width="200" height="200"><defs><style type="text/css"></style></defs><path d="M796.8 654c-6.2-7.6-11.8-14.4-16.2-19.8 0-0.5 0.1-1 0.1-1.6V410.9c0-69.5-28-134.9-78.9-183.9-26.4-25.5-57.3-45-91-57.8 0.6-1.8 0.9-3.6 0.9-5.6 0-54.3-44.2-98.5-98.5-98.5s-98.5 44.2-98.5 98.5c0 1.7 0.2 3.3 0.7 4.8-34.4 12.8-66 32.6-92.9 58.6-50.9 49.1-78.9 114.4-78.9 183.9v222.6c-4.4 5.6-10.3 12.7-16.8 20.6-50.5 61.5-92.4 114.9-92.4 145.8 0 19 7.9 30.3 14.6 36.5 12.9 12 29.9 13.3 36.8 13.3h2.1l198.2-0.3C393.8 911.6 447 960 511.2 960s117.5-48.4 125.1-110.7l199.4 0.3h2.1c6.9 0 23.9-1.3 36.8-13.3 6.7-6.2 14.6-17.6 14.6-36.5-0.1-31-41.9-84.3-92.4-145.8zM513.2 101c32.7 0 59.6 25.2 62.2 57.3-20.5-4.8-41.7-7.2-63.3-7.2-20.8 0-41.3 2.3-61.1 6.7 2.9-31.8 29.7-56.8 62.2-56.8z m-2 823c-44.4 0-81.4-32.3-88.7-74.7l89.3-0.1 88.2 0.1c-7.3 42.4-44.3 74.7-88.8 74.7z m338.9-114.1c-3.5 3.3-10.4 3.8-12.7 3.8h-1.2l-257.4-0.3c-0.8-0.1-1.6-0.2-2.4-0.2l-64.5 0.1-64.5-0.1c-0.8 0-1.6 0.1-2.4 0.2l-257.4 0.3h-1.3c-1.2 0.1-8.8-0.2-12.5-3.7-0.8-0.7-3.1-2.9-3.1-10.2 0-2 1.4-13.8 28.1-51.4 17.5-24.5 38.9-50.6 56.1-71.6 8.7-10.6 16.2-19.8 21.3-26.3 3.3-4.3 4.3-9.5 3.3-14.4 0.2-1.2 0.4-2.5 0.4-3.7V410.8c0-123.4 104.3-223.8 232.5-223.8s232.5 100.4 232.5 223.8v221.6c0 0.7 0 1.3 0.1 2-1.6 5.3-0.7 11.3 2.9 16.1 5 6.5 12.5 15.7 21.3 26.3 17.2 21 38.7 47 56.1 71.6 26.7 37.5 28.1 49.4 28.1 51.3-0.3 7.3-2.6 9.5-3.3 10.2z" p-id="25735"></path></svg>