<?xml version="1.0" standalone="no"?><!DOCTYPE svg PUBLIC "-//W3C//DTD SVG 1.1//EN" "http://www.w3.org/Graphics/SVG/1.1/DTD/svg11.dtd"><svg t="1561617560752" class="icon" viewBox="0 0 1024 1024" version="1.1" xmlns="http://www.w3.org/2000/svg" p-id="2159" xmlns:xlink="http://www.w3.org/1999/xlink" width="128" height="128"><defs><style type="text/css"></style></defs><path d="M336.6 638.6c8.2-7.4 12.3-18 12.3-31.9 0-13.7-4.2-24.6-12.5-32.8s-19.8-12.4-34.4-12.6h-54v88.3h52.8c15.6 0.1 27.6-3.6 35.8-11zM557.3 722.2c12.3-14.4 18.6-35.1 18.9-62.1V646c0-27.5-6-48.4-17.9-62.9s-29.3-21.7-52-21.7h-30.8v182.5h28.7c23 0 40.7-7.2 53.1-21.7z" p-id="2160"></path><path d="M868 467.8V245.5h-0.1c0-5.9-2.3-11.9-7-16.2-1.3-1.2-3.8-3.5-7.2-6.7-5.7-5.4-12.2-11.3-19.1-17.7-19.8-18.4-39.8-36.7-58.7-53.8-2.1-1.9-2.1-1.9-4.3-3.9-25.2-22.8-46.2-41.4-61.8-54.5-9.1-7.7-16.2-13.4-21.5-17.2-3.5-2.5-6.3-4.3-9.1-5.7-3.5-1.7-6.8-2.7-11.4-2.6-12.4 0.2-22.3 10.2-22.3 22.8v200.1h178V468h-623V112h378.2c12.3 0 22.2-10 22.2-22.2 0-12.3-10-22.2-22.2-22.2H156v400.2H67v378h89v0.1c0 61.5 49.8 111.1 111.2 111.1H868V845.9h89v-378h-89zM690 245.4V134c14 12 31.5 27.6 51.8 46l4.2 3.8c18.8 17 38.6 35.3 58.3 53.5 3 2.8 5.9 5.5 8.7 8.1H690zM431.5 525.9h74.7c22.4 0 42.2 5 59.5 14.9s30.7 24.1 40.2 42.4 14.3 39.3 14.3 62.9v12.7c0 24-4.8 45.1-14.3 63.3s-23.2 32.2-40.8 42.1-37.9 14.8-60.7 14.8h-72.8V525.9z m-227.5 0h96.8c28.3 0 50.7 7.4 67.4 22.1s24.9 34.2 24.9 58.4c0 24.8-8.1 44.1-24.4 57.9S329.6 685 300.3 685H248v94h-44V525.9z m619.5 386.6H267.2c-36.9 0-66.7-29.7-66.7-66.6v-0.1h623v66.7z m0-351.1H708.1v75.3H810v35.1H708.1V779h-44V525.9h159.4v35.5z" p-id="2161"></path></svg>