<?xml version="1.0" standalone="no"?><!DOCTYPE svg PUBLIC "-//W3C//DTD SVG 1.1//EN" "http://www.w3.org/Graphics/SVG/1.1/DTD/svg11.dtd"><svg t="1560532577696" class="icon" style="" viewBox="0 0 1024 1024" version="1.1" xmlns="http://www.w3.org/2000/svg" p-id="2486" xmlns:xlink="http://www.w3.org/1999/xlink" width="128" height="128"><defs><style type="text/css"></style></defs><path d="M512 475.428571c-29.257143 0-51.2-21.942857-51.2-51.2 0-29.257143 21.942857-51.2 51.2-51.2 29.257143 0 51.2 21.942857 51.2 51.2 0 29.257143-21.942857 51.2-51.2 51.2m0-190.171428c-80.457143 0-138.971429 65.828571-138.971429 138.971428 0 65.828571 43.885714 124.342857 109.714286 138.971429v146.285714c0 14.628571 14.628571 29.257143 29.257143 29.257143s29.257143-14.628571 29.257143-29.257143v-146.285714c65.828571-14.628571 109.714286-73.142857 109.714286-138.971429 0-80.457143-58.514286-138.971429-138.971429-138.971428" p-id="2487"></path><path d="M175.542857 153.6v373.028571c0 36.571429 14.628571 73.142857 36.571429 124.342858s65.828571 102.4 109.714285 153.6c43.885714 43.885714 87.771429 95.085714 138.971429 124.342857 14.628571 14.628571 29.257143 21.942857 43.885714 29.257143 14.628571-7.314286 29.257143-21.942857 43.885715-29.257143 51.2-36.571429 102.4-80.457143 138.971428-131.657143 51.2-51.2 87.771429-109.714286 117.028572-160.914286 21.942857-43.885714 36.571429-87.771429 36.571428-117.028571v-365.714286c-21.942857 7.314286-51.2 7.314286-73.142857 7.314286-87.771429 0-175.542857-29.257143-256-80.457143-80.457143 51.2-168.228571 80.457143-263.314286 80.457143-21.942857 0-43.885714-7.314286-73.142857-7.314286M504.685714 1024c-7.314286 0-21.942857 0-29.257143-7.314286-14.628571-7.314286-36.571429-21.942857-58.514285-36.571428-51.2-36.571429-102.4-87.771429-146.285715-138.971429-51.2-58.514286-95.085714-117.028571-117.028571-168.228571-29.257143-58.514286-43.885714-109.714286-43.885714-153.6V65.828571l43.885714 14.628572c36.571429 7.314286 65.828571 14.628571 95.085714 14.628571C336.457143 95.085714 424.228571 65.828571 490.057143 14.628571L512 0l21.942857 14.628571c65.828571 51.2 153.6 80.457143 241.371429 80.457143 29.257143 0 58.514286-7.314286 95.085714-14.628571l43.885714-14.628572v460.8c0 43.885714-14.628571 95.085714-43.885714 146.285715-29.257143 51.2-73.142857 117.028571-124.342857 168.228571-43.885714 51.2-102.4 95.085714-153.6 138.971429-21.942857 14.628571-36.571429 29.257143-58.514286 36.571428-7.314286 7.314286-14.628571 7.314286-29.257143 7.314286" p-id="2488"></path></svg>