<?xml version="1.0" standalone="no"?><!DOCTYPE svg PUBLIC "-//W3C//DTD SVG 1.1//EN" "http://www.w3.org/Graphics/SVG/1.1/DTD/svg11.dtd"><svg t="1561617712261" class="icon" viewBox="0 0 1024 1024" version="1.1" xmlns="http://www.w3.org/2000/svg" p-id="2386" xmlns:xlink="http://www.w3.org/1999/xlink" width="128" height="128"><defs><style type="text/css"></style></defs><path d="M843.947 292.267h-47.36v-121.6a90.027 90.027 0 0 0-94.72-85.334H312.32a81.493 81.493 0 0 0-85.333 85.334v121.6h-56.32A81.493 81.493 0 0 0 85.333 377.6v325.12a89.173 89.173 0 0 0 85.334 93.867h56.746v52.48a89.6 89.6 0 0 0 89.6 89.6h389.974a89.6 89.6 0 0 0 89.6-89.6v-52.48h47.36a97.707 97.707 0 0 0 94.72-93.867V377.6a90.027 90.027 0 0 0-94.72-85.333z m-564.48-121.6a30.72 30.72 0 0 1 32.853-33.707h389.547c18.773 0 42.666 11.52 42.666 33.707v121.6H279.467z m465.066 678.4a37.547 37.547 0 0 1-37.546 37.973H317.013a37.547 37.547 0 0 1-37.546-37.973V678.4a37.547 37.547 0 0 1 37.546-38.4h389.974a37.547 37.547 0 0 1 37.546 37.973zM887.04 702.72a45.653 45.653 0 0 1-42.667 42.667h-47.786v-66.134a89.6 89.6 0 0 0-89.6-89.6H317.013a89.6 89.6 0 0 0-89.6 89.6v65.28h-56.746a37.547 37.547 0 0 1-33.28-42.666V377.6a31.147 31.147 0 0 1 33.28-33.707h673.28c19.2 0 42.666 11.52 42.666 33.707z m-640-281.173h-37.547a13.227 13.227 0 0 1 0-26.027h38.827a13.227 13.227 0 1 1 0 26.027z m94.293 0h-42.666a13.227 13.227 0 1 1 0-26.027h42.666a13.227 13.227 0 0 1 0 26.027zM768 538.027H248.32a13.227 13.227 0 0 1 0-26.027H768a13.227 13.227 0 0 1 0 26.027z" p-id="2387"></path></svg>