<?xml version="1.0" standalone="no"?><!DOCTYPE svg PUBLIC "-//W3C//DTD SVG 1.1//EN" "http://www.w3.org/Graphics/SVG/1.1/DTD/svg11.dtd"><svg t="1561617374902" class="icon" viewBox="0 0 1024 1024" version="1.1" xmlns="http://www.w3.org/2000/svg" p-id="5224" xmlns:xlink="http://www.w3.org/1999/xlink" width="128" height="128"><defs><style type="text/css"></style></defs><path d="M831.91786719 214.85498135c-5.66996221-5.21996484-11.75992119-10.88992705-18.71987519-17.39988458-19.58986933-17.87988076-38.7597419-35.69976211-57.4796171-52.70964872-2.18998565-1.73998828-2.18998565-1.73998828-4.3499707-3.89997334-24.83983477-22.19985176-45.29969825-40.49973018-60.539596-53.57964287-8.69994229-7.40995049-16.10989278-13.0799127-20.90986083-16.97988692a43.67970879 43.67970879 0 0 0-9.14993878-5.66996221 22.91984737 22.91984737 0 0 0-11.30992471-2.60998242 22.19985176 22.19985176 0 0 0-21.77985497 22.19985176v195.95869365h195.95869365l-21.77985498-21.74985527v653.63564267l21.77985498-21.77985498H257.54169658a65.21956523 65.21956523 0 0 1-65.33956494-65.30956435V85.07584619l-21.7798541 21.77985498H562.39966425c12.17991885 0 21.74985527-9.59993613 21.7498544-21.77985498a21.56985615 21.56985615 0 0 0-21.7498544-21.74985527H148.67242227v761.63492285a108.89927403 108.89927403 0 0 0 108.86927431 108.86927431h587.87608095V237.50482959h-195.95869365l21.77985411 21.77985499V85.07584619a21.59985586 21.59985586 0 0 1-20.90985997 21.35985733c-3.89997422 0-6.08995898-0.44999737-8.27994463-1.73998829-0.41999677 0 0.89999385 0.41999677 2.18998477 1.2899918 3.89997422 3.05997979 10.43993057 7.82994815 18.29987842 14.81990097 14.78990127 12.59991562 34.79976826 30.47979638 59.18960566 52.25965138 2.18998565 1.73998828 2.18998565 1.73998828 4.37997042 3.89997421 18.29987842 16.55988926 37.85974717 34.40977031 57.02961972 52.25965137 6.95995401 6.08995898 13.0799127 12.20991855 18.7198752 17.39988457 3.47997656 3.05997979 5.69996191 5.24996543 6.9899537 6.53995635a21.95985322 21.95985322 0 0 0 30.89979405-0.86999414 21.95985322 21.95985322 0 0 0-0.86999414-30.89979405c-1.2899918-0.89999385-3.47997656-3.05997979-6.959954-6.53995634z m-682.79544844 240.38839687H62.00299971v370.13753233h870.95419365V455.24337823H192.65212901v-0.44999649H149.09241904v0.44999649z m152.81898135 269.9982h132.38911758v34.37977061h-184.19877159v-27.86981396l128.0091463-185.06876573H251.00174023v-34.82976797h179.39880352v26.99981982l-128.45914365 186.38875723z m214.67856885 34.37977061h-42.65971523v-247.79834737h42.65971523v247.79834737z m95.81936133-91.8893874v91.8893874h-43.1097126v-247.79834737h94.91936748c27.89981367 0 49.64966895 7.43995019 65.75956171 21.80985469 16.10989278 14.3699045 24.3898374 33.50977646 24.3898374 57.02961973 0 24.3898374-7.82994815 43.1097126-23.93984091 56.60962207-16.10989278 13.49991036-38.33974424 20.0398667-67.07955234 20.03986669h-50.93966074v0.41999679z m0-34.79976739h51.80965488c15.23989864 0 26.99981982-3.50997627 34.85976767-10.91992763 7.79994844-7.37995078 12.17991885-17.39988369 12.17991885-31.34979053 0-13.49991036-3.89997422-23.93984003-12.17991885-32.21978555-8.27994463-7.82994815-19.61986904-12.17991885-33.53977705-12.17991885h-52.70964785v86.63942285h-0.41999765z" p-id="5225"></path></svg>